<svg width="80" height="80" viewBox="0 0 80 80" fill="none" xmlns="http://www.w3.org/2000/svg">
<path d="M39.9997 70.304H22.4957L17.3757 61.424L13.2637 54.304L17.3757 47.168" stroke="#E3BC3A" stroke-width="5.8" stroke-miterlimit="10"/>
<path d="M17.3758 47.1684H9.11981L5.00781 40.0004L10.8318 29.9044L13.2318 25.7604L17.3918 18.5764L21.5038 11.4403L22.4958 9.69629H39.9998" stroke="#E3BC3A" stroke-width="5.8" stroke-miterlimit="10"/>
<path d="M40 63.168H26.624L21.504 54.304L17.376 47.168L21.552 40H13.248L19.12 29.808L21.504 25.696L25.616 18.576L26.624 16.832H40" stroke="#E3BC3A" stroke-width="5.8" stroke-miterlimit="10"/>
<path d="M39.9998 24.0161H30.7678L21.5518 40.0001L30.7678 55.9841H39.9998" stroke="#E3BC3A" stroke-width="5.8" stroke-miterlimit="10"/>
<path d="M13.2481 40L9.12012 47.168" stroke="#E3BC3A" stroke-width="5.8" stroke-miterlimit="10"/>
<path d="M70.88 47.168L66.752 40" stroke="#E3BC3A" stroke-width="5.8" stroke-miterlimit="10"/>
<path d="M40 70.304H57.504L62.624 61.424L66.736 54.304L62.624 47.168" stroke="#E3BC3A" stroke-width="5.8" stroke-miterlimit="10"/>
<path d="M62.624 47.1684L70.896 47.1044L74.992 40.0004L69.168 29.9044L66.768 25.7604L62.608 18.5764L58.496 11.4403L57.504 9.69629H40" stroke="#E3BC3A" stroke-width="5.8" stroke-miterlimit="10"/>
<path d="M40 63.168H53.376L58.496 54.304L62.624 47.168L58.448 40H66.752L60.88 29.808L58.496 25.696L54.384 18.576L53.376 16.832H40" stroke="#E3BC3A" stroke-width="5.8" stroke-miterlimit="10"/>
<path d="M40 24.0161H49.232L58.448 40.0001L49.232 55.9841H40" stroke="#E3BC3A" stroke-width="5.8" stroke-miterlimit="10"/>
<path d="M30.768 24.016L26.624 16.832" stroke="#E3BC3A" stroke-width="5.8" stroke-miterlimit="10"/>
<path d="M49.2324 24.016L53.3764 16.832" stroke="#E3BC3A" stroke-width="5.8" stroke-miterlimit="10"/>
</svg>
